<svg width="30" height="30" viewBox="0 0 30 30" fill="none" xmlns="http://www.w3.org/2000/svg">
<g clip-path="url(#clip0_0_263)">
<path d="M14.9996 0.600098C7.04661 0.600098 0.599609 7.0471 0.599609 15.0001C0.599609 22.9531 7.04661 29.4001 14.9996 29.4001C22.9526 29.4001 29.3996 22.9531 29.3996 15.0001C29.3996 7.0471 22.9526 0.600098 14.9996 0.600098ZM11.4746 20.9686H8.55861V11.5846H11.4746V20.9686ZM9.99861 10.4326C9.07761 10.4326 8.48211 9.7801 8.48211 8.9731C8.48211 8.1496 9.09561 7.5166 10.0361 7.5166C10.9766 7.5166 11.5526 8.1496 11.5706 8.9731C11.5706 9.7801 10.9766 10.4326 9.99861 10.4326ZM22.1246 20.9686H19.2086V15.7681C19.2086 14.5576 18.7856 13.7356 17.7311 13.7356C16.9256 13.7356 16.4471 14.2921 16.2356 14.8276C16.1576 15.0181 16.1381 15.2881 16.1381 15.5566V20.9671H13.2206V14.5771C13.2206 13.4056 13.1831 12.4261 13.1441 11.5831H15.6776L15.8111 12.8866H15.8696C16.2536 12.2746 17.1941 11.3716 18.7676 11.3716C20.6861 11.3716 22.1246 12.6571 22.1246 15.4201V20.9686Z" fill="white"/>
</g>
<defs>
<clipPath id="clip0_0_263">
<rect width="30" height="30" fill="white"/>
</clipPath>
</defs>
</svg>
