<svg width="117" height="87" viewBox="0 0 117 87" fill="none" xmlns="http://www.w3.org/2000/svg">
<g clip-path="url(#clip0_0_102)">
<path d="M100.673 50.0766C96.6028 50.0975 93.0651 51.0694 90.1032 52.5063C89.016 50.3721 87.9292 48.4708 87.7377 47.076C87.5243 45.4493 87.2688 44.4561 87.5243 42.5122C87.7802 40.5683 88.931 37.8001 88.9095 37.589C88.8885 37.3778 88.6536 36.3846 86.3096 36.3637C83.9656 36.3424 81.941 36.8073 81.7066 37.42C81.4722 38.0326 81.0247 39.4273 80.7263 40.8637C80.3214 42.9771 76.0383 50.5198 73.5878 54.471C72.799 52.9291 72.1172 51.5765 71.9678 50.499C71.7548 48.8722 71.4989 47.879 71.7548 45.9351C72.0107 43.9912 73.1615 41.2235 73.14 41.0119C73.1185 40.8007 72.884 39.8075 70.5401 39.7866C68.1956 39.7653 66.1711 40.2302 65.9371 40.8429C65.7026 41.4559 65.4467 42.8923 64.9568 44.2871C64.4664 45.6818 58.7767 58.275 57.285 61.5285C56.6822 62.8453 56.0498 64.1487 55.3884 65.4376C55.3884 65.4376 55.3669 65.501 55.3029 65.6066C55.0951 66.0107 54.8822 66.4122 54.664 66.811V66.8318C54.3441 67.4028 54.0032 67.9307 53.8327 67.9307C53.7048 67.9307 53.4703 66.4095 53.8752 64.3387C54.7276 59.9652 56.7521 53.1615 56.7311 52.9291C56.7311 52.8022 57.1145 51.6191 55.4099 51.006C53.7473 50.3934 53.1509 51.4075 53.0014 51.4075C52.8525 51.4075 52.7455 51.7668 52.7455 51.7668C52.7455 51.7668 54.6001 44.118 49.2083 44.118C45.8415 44.118 41.1955 47.7734 38.8941 51.0694C36.2777 52.4811 33.6637 53.8968 31.0518 55.3166C29.795 56.0139 28.4948 56.7113 27.2801 57.3661C27.1946 57.2818 27.1096 57.1758 27.0242 57.0915C20.5031 50.1822 8.44176 45.3012 8.95315 36.0257C9.14509 32.6449 10.3169 23.7705 32.1175 12.9947C50.0606 4.22583 64.3389 6.65549 66.8109 12.0436C70.3481 19.7349 59.1605 34.0183 40.6202 36.0887C33.5452 36.8708 29.8371 34.1661 28.8997 33.152C27.9195 32.0953 27.77 32.0318 27.4076 32.2435C26.8112 32.5606 27.1946 33.5113 27.4076 34.0605C27.962 35.4969 30.242 38.0326 34.0991 39.2796C37.5089 40.378 45.7985 40.991 55.8358 37.1454C67.0663 32.8348 75.8464 20.8546 73.2679 10.8183C70.689 0.633908 53.6408 -2.72556 37.5089 2.95799C27.9195 6.33921 17.5198 11.6634 10.0399 18.594C1.15339 26.834 -0.253284 33.997 0.32209 36.9976C2.3896 47.6465 17.2003 54.5771 23.1245 59.7114C22.8261 59.8804 22.5487 60.0286 22.3147 60.1555C19.3524 61.6132 8.05787 67.4658 5.24498 73.6568C2.04867 80.6716 5.75683 85.7009 8.20731 86.3765C15.8151 88.4686 23.6359 84.7076 27.834 78.4953C32.0321 72.2834 31.5207 64.2119 29.5816 60.5144C29.5601 60.4722 29.5391 60.4296 29.4961 60.3875C30.2635 59.9439 31.0518 59.479 31.8191 59.0354C33.2294 58.2088 34.6576 57.4126 36.1026 56.6474C35.3778 58.6126 34.845 60.958 34.5895 64.3387C34.2696 68.3113 35.9102 73.4665 38.0628 75.4947C39.022 76.3828 40.1513 76.4037 40.8761 76.4037C43.3906 76.4037 44.5203 74.3329 45.7775 71.8819C47.3117 68.8818 48.6969 65.3954 48.6969 65.3954C48.6969 65.3954 46.9708 74.8191 51.6592 74.8191C53.3638 74.8191 55.09 72.6214 55.8573 71.5017V71.5226C55.8573 71.5226 55.8998 71.4592 55.9853 71.3114C56.1557 71.0368 56.2622 70.8674 56.2622 70.8674V70.8257C56.9441 69.6421 58.4787 66.9587 60.7587 62.5004C63.6996 56.7534 66.5339 49.5696 66.5339 49.5696C66.5339 49.5696 66.7898 51.3232 67.6632 54.239C68.175 55.9505 69.2399 57.831 70.0926 59.648C69.4108 60.5991 68.9844 61.127 68.9844 61.127L69.0059 61.1483C68.4515 61.8665 67.8551 62.6481 67.1943 63.4094C64.8713 66.1558 62.1014 69.3045 61.7175 70.2126C61.2696 71.2901 61.3766 72.0722 62.2294 72.7062C62.8472 73.1711 63.955 73.234 65.0847 73.1711C67.1733 73.0229 68.6435 72.5158 69.3678 72.1991C70.4976 71.7976 71.8188 71.1846 73.0545 70.276C75.335 68.6067 76.7197 66.2192 76.5922 63.0714C76.5282 61.3386 75.9529 59.6059 75.2495 57.9787C75.463 57.6833 75.6544 57.3874 75.8679 57.0915C79.4691 51.8724 82.2609 46.1462 82.2609 46.1462C82.2609 46.1462 82.5169 47.8998 83.3902 50.8161C83.8166 52.2951 84.6904 53.901 85.4573 55.4643C82.069 58.1903 79.9805 61.3594 79.2346 63.4302C77.8924 67.2759 78.9362 69.0082 80.9183 69.4097C81.8131 69.6 83.0918 69.1772 84.0296 68.7757C85.2228 68.3956 86.6295 67.7408 87.9722 66.7684C90.2527 65.0995 92.4472 62.775 92.3192 59.6272C92.2553 58.1903 91.8718 56.7743 91.339 55.4009C94.2158 54.2182 97.924 53.563 102.654 54.1122C112.799 55.2953 114.802 61.5706 114.418 64.2123C114.034 66.8531 111.903 68.29 111.201 68.7336C110.497 69.1777 110.263 69.3254 110.327 69.6421C110.412 70.107 110.753 70.0862 111.35 70.0014C112.181 69.8537 116.677 67.8672 116.869 63.0075C117.189 56.7956 111.222 50.0132 100.673 50.0766ZM22.4212 76.2346C19.0539 79.8687 14.366 81.2421 12.3414 80.0803C10.1679 78.8333 11.0202 73.4665 15.1543 69.6213C17.6688 67.2759 20.908 65.0991 23.0605 63.7683C23.5505 63.4724 24.2753 63.0501 25.1491 62.5217C25.2981 62.437 25.3835 62.3948 25.3835 62.3948L25.8949 62.0776C27.4076 67.5713 25.9589 72.4103 22.4212 76.2346ZM46.9283 59.7114C45.756 62.543 43.3056 69.7903 41.8139 69.3888C40.5352 69.0508 39.7464 63.5571 41.558 58.1269C42.4743 55.4009 44.4133 52.147 45.5431 50.8796C47.3757 48.8509 49.4002 48.1744 49.8901 48.9991C50.5085 50.0766 47.6526 57.9365 46.9283 59.7114ZM67.1518 69.3041C66.6614 69.5578 66.193 69.7269 65.9796 69.6C65.8306 69.5153 66.193 69.1772 66.193 69.1772C66.193 69.1772 68.7289 66.473 69.7302 65.2473C70.3061 64.5291 70.9875 63.684 71.7123 62.7329V63.0075C71.7123 66.2405 68.558 68.4169 67.1513 69.3041H67.1518ZM82.7509 65.7756C82.3885 65.5219 82.4524 64.6768 83.6672 62.0355C84.1361 61.0001 85.2438 59.2678 87.1409 57.5985C87.3539 58.2746 87.5033 58.9298 87.4818 59.5424C87.4603 63.6205 84.5199 65.1417 82.7509 65.7756Z" fill="#CD6799"/>
</g>
<defs>
<clipPath id="clip0_0_102">
<rect width="117" height="87" fill="white"/>
</clipPath>
</defs>
</svg>
