<svg width="88" height="87" viewBox="0 0 88 87" fill="none" xmlns="http://www.w3.org/2000/svg">
<g clip-path="url(#clip0_0_104)">
<path d="M0 75.7821C0 81.9781 5.08028 87 11.3468 87H76.6528C82.9204 87 88 81.9774 88 75.7821V11.2182C88 5.02187 82.9197 0 76.6532 0H11.3472C5.07959 0 0 5.02255 0 11.2179V75.7818V75.7821Z" fill="#563D7C"/>
<path d="M36.4914 38.4832V26.1629H47.4608C48.5058 26.1629 49.513 26.2489 50.4831 26.4212C51.4531 26.5931 52.3115 26.9003 53.0578 27.3431C53.8037 27.786 54.4008 28.4007 54.8487 29.1875C55.2963 29.9746 55.5204 30.9829 55.5204 32.2121C55.5204 34.4255 54.8487 36.0241 53.5053 37.0076C52.1623 37.9915 50.446 38.4832 48.3563 38.4832H36.4914ZM24.7754 17.1621V69.8379H50.5951C52.9832 69.8379 55.309 69.5429 57.5726 68.9526C59.8362 68.3623 61.8509 67.4525 63.6171 66.223C65.3829 64.9934 66.7885 63.407 67.8332 61.4645C68.8782 59.5216 69.4003 57.2222 69.4003 54.5663C69.4003 51.2709 68.5918 48.4553 66.9752 46.1192C65.3582 43.7828 62.9079 42.1474 59.6244 41.2129C62.0125 40.0819 63.8161 38.6307 65.035 36.8601C66.2536 35.0895 66.8631 32.8765 66.8631 30.2203C66.8631 27.7612 66.4527 25.6956 65.6318 24.0232C64.8109 22.3512 63.6542 21.0108 62.1616 20.0025C60.6694 18.9942 58.8785 18.2686 56.7888 17.8262C54.6995 17.3833 52.3861 17.1621 49.8489 17.1621H24.7754ZM36.4914 60.8371V46.3771H49.2518C51.789 46.3771 53.8288 46.9548 55.3712 48.111C56.9133 49.2668 57.6846 51.1971 57.6846 53.9023C57.6846 55.2797 57.4481 56.4107 56.9755 57.296C56.5028 58.1813 55.8686 58.8823 55.0725 59.3986C54.2767 59.9151 53.3561 60.2839 52.3115 60.5054C51.2665 60.7263 50.1723 60.8371 49.028 60.8371H36.4914Z" fill="white"/>
</g>
<defs>
<clipPath id="clip0_0_104">
<rect width="88" height="87" fill="white"/>
</clipPath>
</defs>
</svg>
