<svg width="120" height="120" viewBox="0 0 120 120" fill="none" xmlns="http://www.w3.org/2000/svg">
<path d="M7.5 7.5H112.5V112.5H7.5V7.5Z" fill="#F5DE19"/>
<path d="M78.0333 89.5312C78.9279 91.3485 80.3179 92.8759 82.0429 93.9375C83.768 94.9991 85.7579 95.5515 87.7833 95.5313C91.8708 95.5313 94.4845 93.4875 94.4845 90.6562C94.4845 87.2812 91.7995 86.0738 87.2995 84.105L84.832 83.0475C77.707 80.0138 72.982 76.215 72.982 68.1825C72.982 60.7838 78.607 55.1475 87.4308 55.1475C90.2872 54.9412 93.1411 55.5805 95.6365 56.9856C98.132 58.3907 100.158 60.4994 101.463 63.0488L93.7495 67.98C93.2471 66.716 92.3723 65.6345 91.2411 64.879C90.11 64.1236 88.7759 63.7298 87.4158 63.75C86.8224 63.6906 86.2231 63.7555 85.6562 63.9404C85.0892 64.1254 84.567 64.4265 84.1229 64.8244C83.6787 65.2224 83.3223 65.7085 83.0764 66.2518C82.8305 66.7951 82.7004 67.3837 82.6945 67.98C82.6945 70.9388 84.5283 72.1388 88.762 73.98L91.2295 75.0375C99.6145 78.6338 104.355 82.2975 104.355 90.5363C104.355 99.42 97.3758 104.287 88.0045 104.287C84.3532 104.52 80.7125 103.691 77.5218 101.901C74.3312 100.11 71.7269 97.4342 70.0233 94.1963L78.0333 89.5312ZM43.177 90.3863C44.7258 93.135 46.1358 95.46 49.5258 95.46C52.7658 95.46 54.8133 94.1925 54.8133 89.2612V55.71H64.6795V89.3925C64.6795 99.6075 58.6795 104.257 49.9458 104.257C46.8586 104.426 43.7926 103.657 41.1509 102.051C38.5091 100.444 36.4152 98.0761 35.1445 95.2575L43.177 90.3863Z" fill="black"/>
</svg>
