<svg width="112" height="112" viewBox="0 0 112 112" fill="none" xmlns="http://www.w3.org/2000/svg">
<path d="M101.535 17.605L81.354 7.88899C80.2143 7.33948 78.9319 7.15814 77.6845 7.37011C76.4372 7.58208 75.2867 8.17686 74.3925 9.07199L8.32998 69.3C7.52845 70.0273 7.04865 71.0432 6.99614 72.1243C6.94363 73.2053 7.32271 74.2629 8.04998 75.0645C8.13748 75.159 8.22498 75.25 8.31948 75.334L13.713 80.234C14.4178 80.8754 15.3249 81.2497 16.277 81.2919C17.229 81.3341 18.1657 81.0416 18.9245 80.465L98.497 20.125C99.098 19.6689 99.8144 19.3897 100.566 19.3186C101.317 19.2476 102.073 19.3877 102.749 19.7231C103.424 20.0585 103.993 20.5758 104.391 21.217C104.789 21.8581 105 22.5975 105 23.352V23.1175C105 21.9656 104.675 20.8372 104.062 19.862C103.449 18.8868 102.573 18.1045 101.535 17.605Z" fill="#0065A9"/>
<path d="M101.535 94.395L81.354 104.115C80.214 104.662 78.9319 104.843 77.6849 104.631C76.4379 104.419 75.2875 103.825 74.3925 102.932L8.32998 42.7C7.52845 41.9727 7.04865 40.9568 6.99614 39.8758C6.94363 38.7947 7.32271 37.7371 8.04998 36.9355C8.13748 36.841 8.22498 36.75 8.31948 36.666L13.713 31.766C14.4185 31.1219 15.3277 30.7459 16.2821 30.7037C17.2365 30.6615 18.1754 30.9557 18.935 31.535L98.497 91.875C99.098 92.3311 99.8144 92.6104 100.566 92.6814C101.317 92.7524 102.073 92.6123 102.749 92.2769C103.424 91.9415 103.993 91.4242 104.391 90.783C104.789 90.1419 105 89.4025 105 88.648V88.9C104.996 90.0488 104.669 91.1733 104.057 92.1451C103.444 93.1168 102.57 93.8965 101.535 94.395Z" fill="#007ACC"/>
<path d="M81.3544 104.114C80.2144 104.662 78.9324 104.843 77.6854 104.631C76.4384 104.419 75.2879 103.825 74.3929 102.931C74.8955 103.428 75.5334 103.764 76.2265 103.899C76.9196 104.034 77.6372 103.962 78.2894 103.691C78.9415 103.42 79.4992 102.963 79.8925 102.376C80.2858 101.79 80.4973 101.1 80.5004 100.394V11.606C80.501 10.8965 80.291 10.2028 79.897 9.61274C79.503 9.02271 78.9428 8.56288 78.2872 8.29152C77.6317 8.02016 76.9103 7.94946 76.2146 8.0884C75.5188 8.22734 74.88 8.56965 74.3789 9.07197C75.2732 8.17717 76.4235 7.58235 77.6707 7.3698C78.9178 7.15724 80.2002 7.33744 81.3404 7.88547L101.518 17.5875C102.559 18.0845 103.439 18.8657 104.055 19.8411C104.671 20.8165 104.999 21.9463 105 23.1V88.9C105.001 90.0528 104.675 91.1822 104.062 92.1581C103.448 93.134 102.571 93.9167 101.532 94.416L81.3544 104.114Z" fill="#1F9CF0"/>
</svg>
